<svg xmlns="http://www.w3.org/2000/svg" fill="none" viewBox="0 0 219 149">
    <path fill="#041a48" fill-rule="evenodd" d="M116.546 12.149c6.33-3.147 10.096-.847 10.096-.847-1.122-2.785-1.723-6.295 0-10.491 0 0-3.726-2.3-10.096.847-7.292 3.631-9.616.847-9.616.847v10.491c.002 0 .012.01.029.025.29.274 2.745 2.592 9.587-.872Zm-87.7 135.047c1.403-6.133 7.693-8.554 13.422-8.877a75.68 75.68 0 0 1 5.65-.163l.56.002h142.869a19.888 19.888 0 0 1-4.487 9.441c-.2.242.04.565.321.444l31.53-13.396-31.53-13.395c-.281-.121-.521.242-.321.443 2.284 2.623 3.886 5.851 4.487 9.442h-71.515c-.329 0-.928-.067-1.303-.11l-.099-.011c-2.524-.444-4.527-2.542-5.008-5.044-.08-.322-.12-.928-.12-1.613v-4.923h32.893c6.37 0 10.096-1.574 12.58-6.496 1.147-2.221 1.759-4.625 2.373-7.032.5-1.965 1.001-3.931 1.794-5.799l.02-.048c1.196-2.852 2.522-6.011 5.709-7.215 2.484-1.008 3.045-2.179 3.205-4.075.24-2.663 1.603-3.793 2.123-4.075.922-.525 14.223-7.868 15.826-8.716 1.562-.847.641-3.228-1.322-2.42-1.923.806-15.505 6.254-18.871 7.545-2.363.928-4.086 1.775-5.328 2.905-10.91-1.958-23.043 2.651-36.28 7.68h-.001c-7.228 2.746-14.786 5.617-22.654 7.612-6.09 1.533-12.42 2.865-18.47 3.47-20.512 1.977-33.373-1.695-36.298-2.905 0 3.026 1.643 9.522 3.646 13.96 1.683 3.753 6.69 5.649 10.177 5.649h40.184v4.923c0 .584-.058 1.08-.1 1.439l-.02.175c-.441 2.501-2.484 4.6-5.008 5.043-.32.041-1.042.121-1.402.121h-49.6l-.555.002h-.006a75.674 75.674 0 0 1-5.65-.163c-5.728-.363-12.018-2.744-13.42-8.877H0l9.896 12.549L0 147.236h28.846v-.04Zm63.138-54.27c-1.722.243-3.445.485-5.128.646-23.678 2.26-41.827-3.107-51.322-9.28 37.1-31.23 33.654-75.775 33.654-75.775l29.608 18.681c2.964 12.186 3.485 23.08 2.764 32.32 11.539-19.57 5.409-42.77 5.409-42.77l31.13 17.996c5.449 12.185 6.17 22.716 5.208 30.745 5.008-7.989 8.614-17.551 3.245-32.037 25.241 11.944 26.202 31.755 23.238 42.73-9.896-3.309-18.75-1.735-29.808 1.977-1.122 2.622-2.084 4.075-2.084 4.075s-21.594 4.438-41.146.161c-2.163 6.093-4.287 9.765-4.767 10.532h-.001Z" clip-rule="evenodd"/>
    </svg>