<svg
    width="32"
    height="53"
    viewBox="0 0 32 53"
    fill="none"
    xmlns="http://www.w3.org/2000/svg"
>
    <path
        fillRule="evenodd"
        clipRule="evenodd"
        d="M4.16159 1.64498C4.08681 1.5247 3.99579 1.42066 3.88526 1.33289C3.77472 1.24186 3.64794 1.17359 3.50814 1.12158C3.36835 1.07281 3.22206 1.04681 3.06927 1.04681C2.78969 1.04681 2.55237 1.10207 2.35406 1.20935C2.159 1.31663 1.9997 1.46293 1.87942 1.64498C1.75913 1.82703 1.66811 2.03509 1.61284 2.26916C1.55758 2.49998 1.52832 2.74055 1.52832 2.99087C1.52832 3.22819 1.55432 3.45901 1.61284 3.68333C1.66811 3.90764 1.75588 4.1092 1.87942 4.29125C1.9997 4.47006 2.159 4.61635 2.35406 4.72363C2.54911 4.83091 2.78643 4.88618 3.06927 4.88618C3.44963 4.88618 3.74872 4.76914 3.96003 4.53833C4.17459 4.30426 4.30463 3.99867 4.35339 3.61831H5.55949C5.52698 3.97266 5.44571 4.29125 5.31242 4.57734C5.17913 4.86342 5.00683 5.10724 4.78902 5.30555C4.57121 5.50711 4.31763 5.6599 4.0283 5.76718C3.73896 5.87121 3.41712 5.92648 3.06927 5.92648C2.63689 5.92648 2.24678 5.85171 1.89892 5.69891C1.55107 5.54937 1.26174 5.34131 1.02117 5.07473C0.783849 4.81141 0.601796 4.49931 0.475009 4.14171C0.348222 3.78736 0.283203 3.40374 0.283203 2.99087C0.283203 2.56825 0.348222 2.17489 0.475009 1.81078C0.601796 1.44992 0.783849 1.13133 1.02117 0.864753C1.25849 0.594924 1.55107 0.383612 1.89892 0.230817C2.24353 0.0780228 2.63364 0 3.06927 0C3.38136 0 3.67719 0.0455133 3.95353 0.133289C4.22986 0.224316 4.48018 0.354353 4.69799 0.526654C4.91581 0.698954 5.09786 0.910266 5.2409 1.16384C5.38394 1.41741 5.47497 1.71 5.51073 2.03509H4.30463C4.28512 1.8953 4.23636 1.76527 4.16159 1.64498ZM16.0244 37.8636C23.5503 37.8636 29.6491 31.7648 29.6491 24.2421C29.6491 16.7194 23.5503 10.6239 16.0244 10.6206C8.50165 10.6206 2.40287 16.7194 2.40287 24.2421C2.40287 31.7648 8.50165 37.8636 16.0244 37.8636ZM0.335269 24.2323C0.335269 15.5686 7.36057 8.54327 16.0244 8.54327C24.6914 8.54327 31.7167 15.5686 31.7167 24.2323C31.7167 32.8961 24.6914 39.9214 16.0244 39.9214C7.36057 39.9214 0.335269 32.8961 0.335269 24.2323ZM15.9562 15.2826H9.46079V33.1954H18.1116C21.6714 33.1954 23.5537 30.6856 23.5537 28.0524C23.5537 25.845 22.3508 24.1902 20.1434 23.7384V23.6863C21.8014 23.0101 22.8027 21.5797 22.8027 19.6747C22.8027 17.9159 21.8762 16.6383 20.6961 15.9361C19.62 15.2826 17.5361 15.2826 15.9562 15.2826ZM16.6096 22.9809H11.8405V17.2852H16.6096C18.6675 17.2852 20.423 17.6363 20.423 20.1201C20.423 22.0023 19.3177 22.9809 16.6096 22.9809ZM17.8125 31.183H11.8405V24.99H17.2858C19.2917 24.99 21.174 25.6402 21.174 27.9743C21.174 29.9282 19.8671 31.183 17.8125 31.183ZM31.684 43.2345H0.367652V45.2923H31.684V43.2345ZM30.7633 40.9667C30.7446 40.9676 30.7255 40.9684 30.7056 40.9684V40.9717H30.5301V40.6238H30.7544C30.7869 40.6238 30.8129 40.6238 30.8422 40.6271C30.8747 40.6336 30.8974 40.6401 30.9202 40.6531C30.9429 40.6628 30.9624 40.6791 30.9754 40.7018C30.9885 40.7213 30.995 40.7539 30.995 40.7896C30.995 40.8319 30.9884 40.8644 30.9722 40.8904C30.9559 40.9132 30.9364 40.9327 30.9072 40.9457C30.8812 40.9554 30.8487 40.9619 30.8161 40.9652C30.8087 40.9652 30.8013 40.9653 30.7938 40.9655L30.7633 40.9667ZM31.0697 40.562C31.0047 40.51 30.9104 40.484 30.7804 40.484V40.4873H30.3545V41.5796H30.5268V41.1082H30.7056L31.0047 41.5796H31.1868L30.8747 41.0985C30.9592 41.0887 31.0275 41.0627 31.0827 41.0172C31.1347 40.9684 31.164 40.9001 31.164 40.7994C31.164 40.6921 31.1315 40.6141 31.0697 40.562ZM30.1725 41.5991C30.1009 41.5276 30.0457 41.4398 30.0099 41.3423C29.9709 41.248 29.9514 41.1407 29.9514 41.0269C29.9514 40.9099 29.9709 40.8091 30.0099 40.7116C30.0489 40.6141 30.1009 40.5295 30.1725 40.458C30.2375 40.3897 30.322 40.3345 30.4163 40.2922C30.5073 40.2532 30.6113 40.2304 30.7186 40.2304C30.8259 40.2304 30.9299 40.2532 31.021 40.2922C31.112 40.3312 31.1933 40.3865 31.2648 40.458C31.3298 40.5295 31.3851 40.6141 31.4241 40.7116C31.4663 40.8091 31.4858 40.9132 31.4858 41.0269C31.4858 41.1407 31.4631 41.2447 31.4241 41.3423C31.3883 41.4431 31.3331 41.5276 31.2648 41.5991C31.1965 41.6706 31.1152 41.7259 31.021 41.7681C30.9299 41.8072 30.8292 41.8267 30.7186 41.8267C30.6113 41.8267 30.5073 41.8072 30.4163 41.7681C30.322 41.7259 30.2407 41.6706 30.1725 41.5991ZM30.0587 40.3637C29.9742 40.4483 29.9059 40.5425 29.8571 40.6563C29.8019 40.7701 29.7823 40.8969 29.7856 41.0269C29.7856 41.1602 29.8051 41.2838 29.8571 41.3975C29.9059 41.5146 29.9742 41.6121 30.0587 41.6966C30.1432 41.7844 30.244 41.8462 30.3578 41.8949C30.4715 41.9404 30.5918 41.9632 30.7186 41.9632C30.8487 41.9632 30.9689 41.9404 31.086 41.8949C31.1965 41.8462 31.294 41.7844 31.3786 41.6966C31.4631 41.6121 31.5314 41.5146 31.5801 41.3975C31.6321 41.2838 31.6549 41.1602 31.6549 41.0269C31.6549 40.8936 31.6321 40.7701 31.5801 40.6563C31.5346 40.5458 31.4631 40.4483 31.3786 40.3637C31.2973 40.2792 31.1965 40.2174 31.086 40.1687C30.9689 40.1199 30.8487 40.0972 30.7186 40.0972C30.5951 40.0972 30.4715 40.1199 30.3578 40.1687C30.244 40.2174 30.1432 40.2792 30.0587 40.3637ZM7.91006 5.06178C7.59472 5.06178 7.35089 4.97726 7.18184 4.81471C7.0128 4.65216 6.92177 4.38558 6.90226 4.03123H9.86063C9.88338 3.71264 9.85738 3.40705 9.7826 3.11771C9.70783 2.82838 9.58755 2.5683 9.42175 2.34073C9.25595 2.11317 9.04464 1.93437 8.78456 1.79783C8.52449 1.66454 8.2189 1.59627 7.87105 1.59627C7.55896 1.59627 7.27612 1.65153 7.0193 1.76207C6.76247 1.8726 6.54141 2.02539 6.3561 2.2172C6.1708 2.409 6.02776 2.63982 5.92698 2.90315C5.8262 3.16648 5.77743 3.45256 5.77743 3.75815C5.77743 4.07349 5.8262 4.36608 5.92373 4.6294C6.02126 4.89598 6.16105 5.12355 6.33985 5.3121C6.5219 5.50066 6.73972 5.64695 6.99979 5.75098C7.25662 5.85501 7.5492 5.90703 7.87105 5.90703C8.33593 5.90703 8.73255 5.79975 9.06089 5.58843C9.38924 5.37712 9.63306 5.02277 9.79236 4.53188H8.80082C8.76181 4.65866 8.66103 4.77895 8.49848 4.89273C8.33268 5.00651 8.13762 5.06178 7.91006 5.06178ZM7.84179 2.43501C8.11487 2.43501 8.31968 2.50978 8.45622 2.65608C8.58951 2.80562 8.68378 3.02018 8.7358 3.30627H6.90551C6.91202 3.22499 6.92827 3.13722 6.95753 3.03644C6.98679 2.93566 7.03555 2.84138 7.10707 2.75035C7.17859 2.66258 7.27287 2.58781 7.39316 2.52604C7.51344 2.46427 7.66299 2.43501 7.84179 2.43501ZM11.4405 1.69727V2.458H11.4567C11.5087 2.33121 11.5803 2.21418 11.6713 2.10364C11.7623 1.99636 11.8631 1.90208 11.9801 1.82731C12.0972 1.75254 12.2207 1.69077 12.354 1.64851C12.4873 1.60625 12.6238 1.58674 12.7669 1.58674C12.8416 1.58674 12.9229 1.59975 13.0139 1.62575V2.67256C12.9619 2.66281 12.8969 2.65305 12.8221 2.64655L12.8124 2.6457C12.7411 2.6395 12.6729 2.63355 12.6076 2.63355C12.4028 2.63355 12.2272 2.66931 12.0842 2.73758C11.9411 2.80585 11.8273 2.90013 11.7396 3.02041C11.6518 3.1407 11.59 3.27724 11.5543 3.43653C11.5185 3.59583 11.499 3.76813 11.499 3.95343V5.80322H10.3742V1.69727H11.4405ZM16.0274 2.45104V1.69682H15.1952V0.467959H14.0703V1.69682H13.3876V2.45104H14.0703V4.87299C14.0703 5.08106 14.1061 5.24685 14.1744 5.37364C14.2459 5.50043 14.3369 5.59796 14.4572 5.66623C14.5775 5.73775 14.714 5.78326 14.8701 5.80602C15.0229 5.82877 15.1887 5.84178 15.3642 5.84178C15.4747 5.84178 15.5885 5.83853 15.7056 5.83203C15.8226 5.82552 15.9299 5.81577 16.0242 5.79952V4.92826C15.9721 4.93801 15.9169 4.94452 15.8584 4.95102C15.7998 4.95427 15.7413 4.95752 15.6763 4.95752C15.4878 4.95752 15.3577 4.92501 15.2959 4.86324C15.2342 4.80147 15.2017 4.67469 15.2017 4.48288V2.45104H16.0274ZM16.6811 1.06311V0.13334H17.806V1.06311H16.6811ZM17.8092 1.69705V5.79649H16.6844V1.69705H17.8092ZM18.2545 1.69705V2.45127H18.9307V5.803H20.0588V2.45452H20.8358V1.7003H20.0588V1.45323C20.0588 1.28418 20.0913 1.16389 20.1563 1.09237C20.2214 1.02085 20.3319 0.985088 20.4847 0.985088C20.6277 0.985088 20.7643 0.99159 20.8943 1.00785V0.165849C20.8339 0.163765 20.7721 0.15901 20.709 0.154152C20.6737 0.151431 20.6379 0.148678 20.6017 0.146344C20.5009 0.136591 20.4002 0.13334 20.2994 0.13334C19.841 0.13334 19.4964 0.247123 19.2688 0.481191C19.0413 0.71526 18.9275 1.01435 18.9275 1.37845V1.69705H18.2545ZM21.5963 1.06311V0.13334H22.7211V1.06311H21.5963ZM22.7211 1.69705V5.79649H21.5963V1.69705H22.7211ZM25.2276 5.06178C24.9123 5.06178 24.6685 4.97726 24.4994 4.81471C24.3304 4.65216 24.2361 4.38558 24.2263 4.03123H27.1847C27.2042 3.71264 27.1782 3.40705 27.1034 3.11771C27.0287 2.82838 26.9084 2.5683 26.7426 2.34073C26.5768 2.11317 26.3655 1.93437 26.1054 1.79783C25.8453 1.66454 25.5397 1.59627 25.1919 1.59627C24.8798 1.59627 24.597 1.65153 24.3401 1.76207C24.0833 1.8726 23.8622 2.02539 23.6769 2.2172C23.4916 2.409 23.3486 2.63982 23.2478 2.90315C23.1503 3.16648 23.0983 3.45256 23.0983 3.75815C23.0983 4.07349 23.147 4.36608 23.2446 4.6294C23.3421 4.89598 23.4819 5.12355 23.6607 5.3121C23.8427 5.50066 24.0605 5.64695 24.3206 5.75098C24.5774 5.85501 24.87 5.90703 25.1919 5.90703C25.6568 5.90703 26.0534 5.79975 26.3817 5.58843C26.7068 5.37712 26.9506 5.02277 27.1099 4.53188H26.1184C26.0794 4.65866 25.9786 4.77895 25.8161 4.89273C25.6503 5.00651 25.4552 5.06178 25.2276 5.06178ZM25.1561 2.43501C25.4292 2.43501 25.6373 2.50978 25.7705 2.65608C25.9071 2.80562 26.0014 3.02018 26.0501 3.30627H24.2198C24.2263 3.22499 24.2426 3.13722 24.2719 3.03644C24.3011 2.93566 24.3499 2.84138 24.4214 2.75035C24.4929 2.66258 24.5872 2.58781 24.7075 2.52604C24.8278 2.46427 24.9773 2.43501 25.1561 2.43501ZM30.5982 5.27309C30.4649 5.49415 30.2926 5.6567 30.0781 5.75423C29.8635 5.85176 29.6229 5.90052 29.3531 5.90052C29.0475 5.90052 28.7777 5.84201 28.5436 5.72172C28.3096 5.60144 28.1178 5.44214 27.9682 5.23733C27.8187 5.03252 27.7049 4.79845 27.6269 4.53513C27.5488 4.2718 27.5131 3.99547 27.5131 3.70938C27.5131 3.43305 27.5521 3.16973 27.6269 2.9129C27.7016 2.65608 27.8187 2.43176 27.9682 2.23345C28.1178 2.0384 28.3096 1.8791 28.5339 1.76207C28.7614 1.64178 29.0248 1.58326 29.3271 1.58326C29.5709 1.58326 29.8018 1.63528 30.0196 1.73931C30.2406 1.84334 30.4129 1.99288 30.5397 2.19444H30.556V0.13334H31.6808V5.79649H30.6145V5.27309H30.5982ZM30.5495 3.24775C30.517 3.0917 30.4649 2.95516 30.3869 2.83488C30.3089 2.71459 30.2114 2.62032 30.0878 2.54554C29.9675 2.47077 29.8115 2.43501 29.6294 2.43501C29.4474 2.43501 29.2881 2.47077 29.1613 2.54554C29.0345 2.62032 28.9337 2.71784 28.8557 2.83813C28.781 2.95841 28.7257 3.09821 28.6899 3.25425C28.6542 3.4103 28.6379 3.57284 28.6379 3.74189C28.6379 3.90119 28.6574 4.06049 28.6932 4.21653C28.7289 4.37583 28.7907 4.51562 28.872 4.64241C28.9533 4.76594 29.0573 4.86672 29.1808 4.94475C29.3044 5.02277 29.4539 5.05853 29.6294 5.05853C29.8148 5.05853 29.9675 5.02277 30.0943 4.948C30.2179 4.87322 30.3187 4.7757 30.3934 4.64891C30.4682 4.52537 30.5202 4.38233 30.5527 4.22628C30.5852 4.06699 30.6015 3.90444 30.6015 3.73539C30.6015 3.56634 30.582 3.40379 30.5495 3.24775ZM2.24353 48.6374C2.67915 48.6374 3.05951 48.9397 3.11478 49.3364H3.96328C3.856 48.4131 3.12128 47.8994 2.24353 47.8994C1.00817 47.8994 0.283203 48.8227 0.283203 50.0061C0.283203 51.1536 1.00817 52.0769 2.24353 52.0769C3.22206 52.0769 3.90801 51.4397 3.99904 50.4449H3.14729C3.08227 50.9716 2.77993 51.3389 2.24353 51.3389C1.4568 51.3389 1.16096 50.6693 1.16096 50.0061C1.16096 49.3071 1.4568 48.6374 2.24353 48.6374ZM5.82923 49.0176C6.7395 49.0176 7.32467 49.619 7.32467 50.5423C7.32467 51.4591 6.7395 52.0605 5.82923 52.0605C4.92547 52.0605 4.33705 51.4558 4.33705 50.5423C4.33705 49.619 4.92222 49.0176 5.82923 49.0176ZM5.82923 51.4623C6.37214 51.4623 6.53144 50.9974 6.53144 50.5423C6.53144 50.0774 6.36889 49.6158 5.82923 49.6158C5.29283 49.6158 5.13028 50.0807 5.13028 50.5423C5.13028 51.0007 5.29283 51.4623 5.82923 51.4623ZM8.56985 49.0893H7.81563V51.9761H8.60886V50.6757C8.60886 50.1686 8.81042 49.7492 9.39234 49.7492C9.48662 49.7492 9.60365 49.759 9.67842 49.7752V49.0372C9.62966 49.021 9.56139 49.0112 9.50612 49.0112C9.11926 49.0112 8.72589 49.2616 8.58285 49.6257H8.56985V49.0893ZM9.98406 49.0956H10.7383V49.463H10.748C10.9366 49.1574 11.2487 49.0176 11.6063 49.0176C12.5133 49.0176 12.9197 49.7491 12.9197 50.5683C12.9197 51.3388 12.497 52.0605 11.6518 52.0605C11.3072 52.0605 10.9756 51.9109 10.787 51.6249H10.774V53H9.98081V49.0956H9.98406ZM12.1297 50.5488C12.1297 50.0904 11.9444 49.6158 11.4372 49.6158C10.9171 49.6158 10.7513 50.0807 10.7513 50.5488C10.7513 51.0169 10.9301 51.4656 11.4437 51.4656C11.9606 51.4623 12.1297 51.0169 12.1297 50.5488ZM16.161 50.5423C16.161 49.619 15.5725 49.0176 14.6623 49.0176C13.7585 49.0176 13.1733 49.619 13.1733 50.5423C13.1733 51.4558 13.7585 52.0605 14.6623 52.0605C15.5725 52.0605 16.161 51.4591 16.161 50.5423ZM15.3677 50.5423C15.3677 50.9974 15.2052 51.4623 14.6623 51.4623C14.1259 51.4623 13.9633 51.0007 13.9633 50.5423C13.9633 50.0807 14.1259 49.6158 14.6623 49.6158C15.2052 49.6158 15.3677 50.0774 15.3677 50.5423ZM16.6485 49.0893H17.4027V49.6257H17.4157C17.5588 49.2616 17.9521 49.0112 18.3357 49.0112C18.391 49.0112 18.4593 49.021 18.508 49.0372V49.7752C18.4365 49.759 18.3195 49.7492 18.222 49.7492C17.64 49.7492 17.4385 50.1686 17.4385 50.6757V51.9761H16.6453V49.0893H16.6485ZM20.1009 49.0176C19.4507 49.0176 18.7875 49.2387 18.742 49.9831H19.5353C19.5645 49.671 19.7596 49.5475 20.0619 49.5475C20.3382 49.5475 20.5756 49.5963 20.5756 49.9376C20.5756 50.2058 20.268 50.2417 19.8866 50.2862C19.8056 50.2956 19.7214 50.3055 19.636 50.318C19.1451 50.3862 18.6542 50.5423 18.6542 51.1957C18.6542 51.7874 19.0899 52.0605 19.636 52.0605C19.9904 52.0605 20.3577 51.9662 20.6081 51.7029C20.6113 51.7971 20.6373 51.8914 20.6633 51.9825H21.4696C21.3948 51.8622 21.3688 51.6021 21.3688 51.3388V49.8368C21.3688 49.1444 20.6763 49.0176 20.1009 49.0176ZM20.1029 50.7083C20.2915 50.6818 20.473 50.6562 20.5756 50.5683H20.5788V50.8674C20.5788 51.0397 20.5528 51.5306 19.9351 51.5306C19.675 51.5306 19.4475 51.4591 19.4475 51.1632C19.4475 50.8706 19.6685 50.7861 19.9156 50.7373C19.9771 50.726 20.0403 50.7171 20.1028 50.7083L20.1028 50.7083L20.1029 50.7083ZM22.9716 49.0956H23.5535V49.6255H22.9716V51.0559C22.9716 51.3257 23.0399 51.3907 23.3065 51.3907C23.391 51.3907 23.469 51.3842 23.5535 51.368V51.9889C23.4202 52.0117 23.2447 52.0182 23.0887 52.0182C22.6043 52.0182 22.1784 51.9044 22.1784 51.3322V49.6287H21.6972V49.0988H22.1784V48.2341H22.9716V49.0956ZM24.1485 48.6507H24.9417V47.9972H24.1485V48.6507ZM24.9417 49.096H24.1485V51.9829H24.9417V49.096ZM26.967 49.0176C27.8773 49.0176 28.4657 49.619 28.4657 50.5423C28.4657 51.4591 27.8773 52.0605 26.967 52.0605C26.0632 52.0605 25.4781 51.4558 25.4781 50.5423C25.4748 49.619 26.0632 49.0176 26.967 49.0176ZM26.967 51.4623C27.5099 51.4623 27.6725 50.9974 27.6725 50.5423C27.6725 50.0774 27.5099 49.6158 26.967 49.6158C26.4306 49.6158 26.2681 50.0807 26.2681 50.5423C26.2681 51.0007 26.4306 51.4623 26.967 51.4623ZM29.7302 49.0956H28.9793V51.9857H29.7725V50.4708C29.7725 49.8823 29.9545 49.6418 30.3869 49.6418C30.7543 49.6418 30.8941 49.8758 30.8941 50.3505V51.9825H31.6873V50.2074C31.6873 49.4922 31.4727 49.0176 30.6307 49.0176C30.2926 49.0176 29.948 49.1736 29.7465 49.4987H29.7302V49.0956Z"
        fill="#FFFCE6"
    />
</svg>