<svg viewBox="0 0 53 58" fill="none" xmlns="http://www.w3.org/2000/svg">
<path fill-rule="evenodd" clip-rule="evenodd" d="M33.0194 51.1759C44.2235 48.2828 52.5 38.108 52.5 26C52.5 11.6406 40.8594 0 26.5 0C12.1406 0 0.5 11.6406 0.5 26C0.5 38.0068 8.63868 48.1126 19.7002 51.1018L23.5309 56.0714C24.9752 57.945 27.8016 57.945 29.2458 56.0714L33.0194 51.1759Z" fill="#FF9D19"/>
<path fill-rule="evenodd" clip-rule="evenodd" d="M27.4692 17.5596C28.2822 17.1556 28.7659 17.4509 28.7659 17.4509C28.6218 17.0934 28.5447 16.6428 28.7659 16.1041C28.7659 16.1041 28.2874 15.8088 27.4692 16.2129C26.5326 16.6791 26.2342 16.3216 26.2342 16.3216V17.6684C26.2344 17.6684 26.2357 17.6696 26.2379 17.6717C26.2751 17.7068 26.5905 18.0043 27.4692 17.5596ZM16.205 34.8968C16.3851 34.1094 17.193 33.7986 17.9289 33.7572C18.2848 33.7348 18.4945 33.7356 18.6545 33.7363L18.7265 33.7365H37.0767C36.9944 34.1975 36.7886 34.6119 36.5004 34.9486C36.4747 34.9796 36.5055 35.0211 36.5416 35.0055L40.5914 33.2858L36.5416 31.5661C36.5055 31.5506 36.4747 31.5972 36.5004 31.6231C36.7937 31.9598 36.9995 32.3742 37.0767 32.8352H27.8913C27.849 32.8352 27.7722 32.8265 27.7239 32.8211L27.7112 32.8196C27.387 32.7626 27.1297 32.4933 27.068 32.1721C27.0577 32.1307 27.0525 32.053 27.0525 31.9649V31.333H31.2773C32.0955 31.333 32.5741 31.131 32.8931 30.499C33.0404 30.2139 33.1191 29.9052 33.1978 29.5964C33.2622 29.3441 33.3265 29.0917 33.4283 28.8518L33.4309 28.8457C33.5846 28.4795 33.7548 28.074 34.1642 27.9194C34.4832 27.7899 34.5552 27.6397 34.5758 27.3963C34.6067 27.0544 34.7817 26.9094 34.8486 26.8731C34.9669 26.8058 36.6754 25.863 36.8812 25.7542C37.0819 25.6455 36.9635 25.3399 36.7114 25.4434C36.4644 25.547 34.7199 26.2463 34.2877 26.4121C33.984 26.5312 33.7628 26.64 33.6033 26.785C32.202 26.5338 30.6436 27.1255 28.9434 27.771L28.9434 27.771C28.0149 28.1235 27.0442 28.4921 26.0337 28.7482C25.2515 28.9451 24.4384 29.116 23.6614 29.1937C21.0267 29.4475 19.3749 28.9761 18.9992 28.8207C18.9992 29.2092 19.2102 30.0432 19.4675 30.613C19.6836 31.0947 20.3269 31.3382 20.7746 31.3382H25.9359V31.9701C25.9359 32.0451 25.9284 32.1088 25.923 32.1548L25.923 32.1549L25.9205 32.1773C25.8639 32.4985 25.6014 32.7678 25.2772 32.8248C25.2361 32.83 25.1434 32.8403 25.0971 32.8403H24.3715H18.7265L18.6545 32.8405C18.4945 32.8412 18.2848 32.842 17.9289 32.8196C17.193 32.773 16.3851 32.4674 16.205 31.68H12.5L13.771 33.291L12.5 34.9019H16.205V34.8968ZM24.3145 27.9297C24.0933 27.9608 23.872 27.9919 23.6559 28.0126C20.6147 28.3027 18.2836 27.6138 17.064 26.8212C21.8291 22.812 21.3865 17.0934 21.3865 17.0934L25.1893 19.4917C25.5701 21.056 25.637 22.4546 25.5444 23.6408C27.0264 21.1285 26.2391 18.1501 26.2391 18.1501L30.2375 20.4603C30.9373 22.0247 31.0299 23.3766 30.9064 24.4074C31.5497 23.3818 32.0128 22.1542 31.3232 20.2946C34.5651 21.8278 34.6886 24.3712 34.3078 25.7801C33.0368 25.3553 31.8996 25.5574 30.4793 26.0339C30.3352 26.3706 30.2117 26.5571 30.2117 26.5571C30.2117 26.5571 27.4381 27.1269 24.9269 26.5778C24.649 27.36 24.3763 27.8313 24.3145 27.9297Z" fill="#001E60"/>
</svg>
